<?xml version="1.0" encoding="UTF-8" standalone="no"?>
<svg
   width="181"
   height="216"
   viewBox="0 0 181 216"
   fill="none"
   version="1.1"
   id="svg11"
   sodipodi:docname="horse.svg"
   inkscape:version="1.1.2 (0a00cf5339, 2022-02-04)"
   xmlns:inkscape="http://www.inkscape.org/namespaces/inkscape"
   xmlns:sodipodi="http://sodipodi.sourceforge.net/DTD/sodipodi-0.dtd"
   xmlns="http://www.w3.org/2000/svg"
   xmlns:svg="http://www.w3.org/2000/svg">
  <sodipodi:namedview
     id="namedview13"
     pagecolor="#ffffff"
     bordercolor="#999999"
     borderopacity="1"
     inkscape:pageshadow="0"
     inkscape:pageopacity="0"
     inkscape:pagecheckerboard="0"
     showgrid="false"
     inkscape:zoom="2.9814815"
     inkscape:cx="90.391304"
     inkscape:cy="107.8323"
     inkscape:window-width="945"
     inkscape:window-height="988"
     inkscape:window-x="0"
     inkscape:window-y="0"
     inkscape:window-maximized="1"
     inkscape:current-layer="svg11" />
  <path
     d="M133.642 193.737C132.146 173.103 131.835 171.414 129.403 170.641C121.962 168.277 114.572 161.757 104.367 148.551C98.4164 140.852 92.9754 134.531 92.2753 134.505C91.5753 134.48 82.125 131.657 71.2747 128.235C51.8313 122.102 51.4833 121.928 47.1355 116.137C41.5642 108.716 38.1385 108.29 38.2902 115.038C38.3494 117.666 38.8446 123.255 39.3909 127.459C39.9373 131.663 39.9065 135.963 39.3222 137.014C38.5204 138.457 38.2506 138.504 38.2214 137.207C38.2021 136.262 37.3659 133.682 36.3674 131.474C30.4168 118.315 24.2031 101.852 24.6989 100.559C25.0169 99.7298 28.2469 97.4333 31.8767 95.4558L38.4764 91.8604L37.6468 83.7552L36.8172 75.6499L43.8637 64.4717C47.7394 58.3236 50.8897 52.7822 50.8645 52.1574C50.8404 51.5327 49.4234 49.312 47.7178 47.2226C44.6881 43.5113 44.5353 43.4719 41.0815 45.5091C37.2834 47.7496 22.532 55.4803 22.0551 55.4803C21.8964 55.4803 20.7997 52.409 19.6174 48.6551L17.4681 41.8299L30.5367 22.8573C48.9958 -3.94084 48.9536 -3.90405 49.4785 6.35857C49.6353 9.42345 49.7738 9.45924 58.8651 8.7837C63.9403 8.40668 69.9541 7.62621 72.2292 7.04956C75.8231 6.13862 76.3656 6.3218 76.3656 8.44632C76.3656 10.4835 77.2919 10.8916 81.9166 10.8916C87.2384 10.8916 87.4409 11.0312 86.8213 14.2756C86.0051 18.5494 89.1554 21.0688 95.3822 21.122C99.0873 21.1557 99.5048 21.3979 97.676 22.464C94.2228 24.4769 96.9665 28.1203 103.945 30.7877L109.916 33.0702L105.868 34.12C103.642 34.6973 101.821 35.906 101.821 36.8059C101.821 38.7713 107.581 44.3317 112.003 46.6343L115.185 48.2914L111.048 49.3744C108.773 49.97 106.912 51.2148 106.912 52.1407C106.912 54.2894 113.523 63.6302 119.418 69.8124C124.677 75.3266 124.526 75.4909 117.381 72.0354C114.476 70.6305 110.811 69.3406 109.237 69.169C106.742 68.8969 106.263 69.6129 105.499 74.7533C105.016 77.9963 103.992 81.8283 103.221 83.2688C102.451 84.7094 101.821 86.7287 101.821 87.7562C101.821 89.2727 128.299 106.439 130.638 106.439C131.007 106.439 134.59 103.859 138.6 100.706C142.609 97.5531 146.22 94.9733 146.623 94.9733C147.026 94.9733 152.398 102.856 158.561 112.49C164.723 122.125 172.293 133.939 175.383 138.744L181 147.481L178.121 166.134C176.537 176.394 174.829 186.221 174.325 187.973C173.144 192.081 174.167 194.749 158.606 146.979L145.702 107.366L141.58 110.838C139.313 112.747 137.458 115.061 137.458 115.979C137.458 116.897 139.378 120.504 141.724 123.994L145.99 130.339L144.661 142.608L143.332 154.877L148.102 159.766L152.871 164.655L145.165 189.761C140.926 203.569 137.458 215.121 137.458 215.433C137.458 215.745 136.963 216 136.358 216C135.752 216 134.531 205.982 133.642 193.737V193.737ZM96.2742 208.766C95.8903 206.789 95.2237 197.719 94.7927 188.61L94.009 172.048L88.3699 166.952L82.7309 161.856L87.661 149.937L92.5911 138.017L100.137 148.026C104.288 153.531 108.926 159.82 110.444 162.003L113.205 165.971L105.637 188.617C101.475 201.072 97.8225 211.509 97.5207 211.811C97.2191 212.113 96.658 210.743 96.2742 208.766ZM0 111.075C0 108.234 5.25672 72.7451 5.75263 72.2381C5.98978 71.9959 12.4818 72.8053 20.1796 74.0369C35.4241 76.4762 35.5814 76.5948 35.62 85.6921C35.6441 91.6722 32.8074 92.6751 22.1659 90.4465C17.3254 89.4328 13.0136 88.6034 12.5843 88.6034C12.1552 88.6034 9.63376 93.7828 6.98166 100.113C2.28725 111.318 0 114.91 0 111.075V111.075Z"
     fill="url(#paint0_linear_3_99)"
     id="path2"
     style="fill:#1a1a1a" />
  <defs
     id="defs9">
    <linearGradient
       id="paint0_linear_3_99"
       x1="90.5"
       y1="0"
       x2="90.5"
       y2="216"
       gradientUnits="userSpaceOnUse">
      <stop
         stop-color="#FC9D3C"
         id="stop4" />
      <stop
         offset="0.645833"
         stop-color="#EA400C"
         id="stop6" />
    </linearGradient>
  </defs>
</svg>
