<?xml version="1.0" encoding="UTF-8" standalone="no"?>
<svg
   width="169"
   height="59"
   viewBox="0 0 169 59"
   fill="none"
   version="1.1"
   id="svg13"
   sodipodi:docname="logo.svg"
   inkscape:version="1.1.1 (3bf5ae0d25, 2021-09-20)"
   xmlns:inkscape="http://www.inkscape.org/namespaces/inkscape"
   xmlns:sodipodi="http://sodipodi.sourceforge.net/DTD/sodipodi-0.dtd"
   xmlns="http://www.w3.org/2000/svg"
   xmlns:svg="http://www.w3.org/2000/svg">
  <sodipodi:namedview
     id="namedview15"
     pagecolor="#ffffff"
     bordercolor="#999999"
     borderopacity="1"
     inkscape:pageshadow="0"
     inkscape:pageopacity="0"
     inkscape:pagecheckerboard="0"
     showgrid="false"
     showborder="false"
     inkscape:zoom="2.8765439"
     inkscape:cx="50.060075"
     inkscape:cy="20.510725"
     inkscape:window-width="1900"
     inkscape:window-height="988"
     inkscape:window-x="0"
     inkscape:window-y="0"
     inkscape:window-maximized="1"
     inkscape:current-layer="svg13" />
  <path
     d="M24.309 20.458L19.684 29.93C19.2893 30.7193 18.87 31.2867 18.426 31.632C17.982 31.9527 17.4517 32.113 16.835 32.113C16.0457 32.113 15.3797 31.8417 14.837 31.299C14.2943 30.7317 13.5913 29.7203 12.728 28.265L8.436 20.458V30.929C8.436 31.9897 8.18933 32.7667 7.696 33.26C7.22733 33.7533 6.512 34 5.55 34C4.46467 34 3.67533 33.7657 3.182 33.297C2.68867 32.8037 2.442 31.854 2.442 30.448V14.316C2.442 12.4167 2.87367 10.986 3.737 10.024C4.60033 9.062 6.05567 8.581 8.103 8.581C8.86767 8.581 9.53367 8.71667 10.101 8.988C10.6683 9.23467 11.0877 9.53067 11.359 9.876C11.655 10.1967 11.9387 10.6037 12.21 11.097L17.168 21.938L22.422 11.282C23.3347 9.506 24.975 8.618 27.343 8.618C28.453 8.618 29.4027 8.81533 30.192 9.21C30.9813 9.58 31.598 10.1967 32.042 11.06C32.5107 11.8987 32.745 12.9593 32.745 14.242V30.337C32.7203 32.779 31.1787 34 28.12 34C27.01 34 26.0973 33.704 25.382 33.112C24.6913 32.4953 24.3337 31.5087 24.309 30.152V20.458ZM43.0848 34.222C41.1361 34.222 39.5204 33.4327 38.2378 31.854C36.9551 30.2507 36.3138 28.0677 36.3138 25.305C36.3138 22.493 36.9428 20.2607 38.2008 18.608C39.4834 16.9307 41.1114 16.092 43.0848 16.092C45.0828 16.092 46.9328 16.795 48.6348 18.201C49.3008 16.9677 50.3738 16.351 51.8538 16.351C53.1858 16.351 54.2218 16.647 54.9618 17.239C55.7018 17.8063 56.0718 18.867 56.0718 20.421V30.041C56.0718 31.521 55.7634 32.557 55.1468 33.149C54.5301 33.7163 53.4448 34 51.8908 34C50.2628 34 49.1898 33.5437 48.6718 32.631C47.0931 33.6917 45.2308 34.222 43.0848 34.222ZM48.1168 21.753C47.6974 21.0377 47.1548 20.68 46.4888 20.68C45.8474 20.68 45.3294 21.1487 44.9348 22.086C44.5401 23.0233 44.3428 24.0963 44.3428 25.305C44.3428 26.4397 44.5278 27.451 44.8978 28.339C45.2678 29.227 45.7858 29.671 46.4518 29.671C47.1424 29.671 47.6974 29.338 48.1168 28.672V21.753ZM67.5056 30.041C67.5056 31.521 67.1973 32.557 66.5806 33.149C65.964 33.7163 64.8663 34 63.2876 34C61.8323 34 60.8456 33.667 60.3276 33.001C59.8096 32.3103 59.5506 31.188 59.5506 29.634V20.532C59.5506 19.6933 59.6986 18.9657 59.9946 18.349C60.2906 17.7077 60.7223 17.2143 61.2896 16.869C61.857 16.5237 62.523 16.351 63.2876 16.351C65.1623 16.351 66.3956 16.8937 66.9876 17.979C68.4183 16.8937 69.7996 16.351 71.1316 16.351C73.7216 16.351 75.0166 17.5843 75.0166 20.051C75.0166 21.0377 74.733 21.8393 74.1656 22.456C73.5983 23.0727 72.8583 23.381 71.9456 23.381C71.403 23.381 70.959 23.27 70.6136 23.048C70.293 22.826 69.9846 22.604 69.6886 22.382C69.4173 22.16 69.0966 22.049 68.7266 22.049C68.184 22.049 67.777 22.234 67.5056 22.604V30.041ZM86.4551 34.222C83.4458 34.222 80.9545 33.445 78.9811 31.891C77.0325 30.337 76.0581 28.2157 76.0581 25.527C76.0581 22.6163 77.0201 20.3223 78.9441 18.645C80.8928 16.943 83.3965 16.092 86.4551 16.092C89.3411 16.092 91.4501 16.61 92.7821 17.646C94.1388 18.6573 94.8171 20.051 94.8171 21.827C94.8171 22.1723 94.7678 22.5053 94.6691 22.826C94.5951 23.1467 94.4595 23.4673 94.2621 23.788C94.0895 24.084 93.8428 24.3677 93.5221 24.639C93.2261 24.8857 92.8808 25.12 92.4861 25.342C92.0915 25.5393 91.6228 25.6997 91.0801 25.823C90.5375 25.9217 89.9578 25.971 89.3411 25.971L84.1241 26.008C84.3708 26.7973 84.8148 27.4263 85.4561 27.895C86.0975 28.339 86.9115 28.561 87.8981 28.561C88.9588 28.561 90.0441 28.4253 91.1541 28.154C91.6228 28.0307 92.1285 27.8333 92.6711 27.562C93.2385 27.2907 93.6455 27.155 93.8921 27.155C94.3115 27.155 94.6321 27.2783 94.8541 27.525C95.1008 27.7717 95.2241 28.08 95.2241 28.45C95.2241 28.894 95.0268 29.4367 94.6321 30.078C94.2375 30.6947 93.6825 31.3237 92.9671 31.965C92.2765 32.5817 91.3515 33.112 90.1921 33.556C89.0328 34 87.7871 34.222 86.4551 34.222ZM83.9391 23.64C85.6411 23.6153 86.5661 23.603 86.7141 23.603C87.0841 23.603 87.3555 23.381 87.5281 22.937C87.6515 22.6163 87.7131 22.1723 87.7131 21.605C87.7131 20.051 87.2445 19.274 86.3071 19.274C85.9618 19.274 85.6165 19.459 85.2711 19.829C84.9505 20.199 84.6668 20.7293 84.4201 21.42C84.1735 22.086 84.0131 22.826 83.9391 23.64ZM109.644 24.047C109.644 22.6657 109.101 21.975 108.016 21.975C107.498 21.975 107.066 22.197 106.721 22.641C106.4 23.0603 106.215 23.6277 106.166 24.343V30.041C106.166 31.5457 105.858 32.5817 105.241 33.149C104.624 33.7163 103.539 34 101.985 34C100.53 34 99.5307 33.667 98.988 33.001C98.47 32.3103 98.211 31.188 98.211 29.634V20.532C98.211 19.274 98.544 18.2627 99.21 17.498C99.9007 16.7333 100.813 16.351 101.948 16.351C102.885 16.351 103.675 16.4867 104.316 16.758C104.957 17.0293 105.438 17.498 105.759 18.164C107.683 16.906 110.026 16.277 112.789 16.277C114.54 16.277 115.798 16.9677 116.563 18.349C117.352 19.7303 117.747 21.9997 117.747 25.157C117.747 26.711 117.71 27.9813 117.636 28.968C117.562 29.93 117.439 30.7687 117.266 31.484C117.118 32.1747 116.871 32.6927 116.526 33.038C116.181 33.3833 115.774 33.63 115.305 33.778C114.861 33.926 114.281 34 113.566 34C112.185 34 111.186 33.741 110.569 33.223C109.977 32.705 109.681 31.9403 109.681 30.929L109.644 24.047ZM127.457 34.222C125.509 34.222 123.893 33.4327 122.61 31.854C121.328 30.2507 120.686 28.0553 120.686 25.268C120.686 22.456 121.315 20.2237 122.573 18.571C123.831 16.9183 125.447 16.092 127.42 16.092C129.418 16.092 131.268 16.7827 132.97 18.164C133.612 16.9553 134.672 16.351 136.152 16.351C137.484 16.351 138.52 16.647 139.26 17.239C140.025 17.831 140.407 18.8917 140.407 20.421V27.192C140.407 29.5847 140.247 31.6443 139.926 33.371C139.63 35.073 139.1 36.5777 138.335 37.885C137.595 39.1923 136.559 40.1667 135.227 40.808C133.92 41.4493 132.304 41.77 130.38 41.77C129.048 41.77 127.815 41.585 126.68 41.215C125.546 40.845 124.645 40.3887 123.979 39.846C123.313 39.3033 122.795 38.7607 122.425 38.218C122.055 37.6753 121.87 37.2067 121.87 36.812C121.87 36.3433 122.006 35.9487 122.277 35.628C122.549 35.3073 122.931 35.147 123.424 35.147C123.72 35.147 124.46 35.4677 125.644 36.109C126.853 36.7503 127.827 37.071 128.567 37.071C131.083 37.071 132.341 35.776 132.341 33.186C130.911 33.8767 129.283 34.222 127.457 34.222ZM132.489 28.672L132.452 21.679C132.033 20.9883 131.503 20.643 130.861 20.643C130.417 20.643 130.023 20.8773 129.677 21.346C129.357 21.8147 129.11 22.3943 128.937 23.085C128.789 23.7757 128.715 24.5033 128.715 25.268C128.715 26.4273 128.9 27.451 129.27 28.339C129.64 29.2023 130.158 29.634 130.824 29.634C131.49 29.634 132.045 29.3133 132.489 28.672ZM155.763 25.231C155.763 23.9483 155.603 22.826 155.282 21.864C154.962 20.8773 154.493 20.384 153.876 20.384C153.457 20.384 153.087 20.6307 152.766 21.124C152.446 21.6173 152.211 22.2217 152.063 22.937C151.915 23.6523 151.841 24.417 151.841 25.231C151.841 26.489 152.014 27.599 152.359 28.561C152.705 29.4983 153.198 29.967 153.839 29.967C154.481 29.967 154.962 29.4983 155.282 28.561C155.603 27.6237 155.763 26.5137 155.763 25.231ZM153.839 34.259C151.915 34.259 150.176 33.9137 148.622 33.223C147.093 32.5323 145.86 31.4963 144.922 30.115C144.01 28.7337 143.553 27.118 143.553 25.268C143.553 22.456 144.515 20.2237 146.439 18.571C148.363 16.9183 150.83 16.092 153.839 16.092C156.849 16.092 159.303 16.9183 161.202 18.571C163.102 20.2237 164.051 22.456 164.051 25.268C164.051 28.0553 163.077 30.2507 161.128 31.854C159.204 33.4573 156.775 34.259 153.839 34.259Z"
     fill="url(#paint0_linear_9_2)"
     id="path2"
     style="fill:#333333" />
  <path
     d="M2.54 55C2.43733 55 2.358 54.972 2.302 54.916C2.246 54.8507 2.218 54.7713 2.218 54.678V45.536C2.218 45.4333 2.246 45.354 2.302 45.298C2.358 45.2327 2.43733 45.2 2.54 45.2H8.322C8.42467 45.2 8.504 45.2327 8.56 45.298C8.616 45.354 8.644 45.4333 8.644 45.536V46.068C8.644 46.1707 8.616 46.25 8.56 46.306C8.504 46.362 8.42467 46.39 8.322 46.39H3.562V49.456H8.014C8.11667 49.456 8.196 49.4887 8.252 49.554C8.308 49.61 8.336 49.6893 8.336 49.792V50.31C8.336 50.4033 8.308 50.4827 8.252 50.548C8.196 50.604 8.11667 50.632 8.014 50.632H3.562V53.81H8.434C8.53667 53.81 8.616 53.838 8.672 53.894C8.728 53.95 8.756 54.0293 8.756 54.132V54.678C8.756 54.7713 8.728 54.8507 8.672 54.916C8.616 54.972 8.53667 55 8.434 55H2.54ZM13.8302 55C13.7276 55 13.6482 54.972 13.5922 54.916C13.5362 54.8507 13.5082 54.7713 13.5082 54.678V45.536C13.5082 45.4333 13.5362 45.354 13.5922 45.298C13.6482 45.2327 13.7276 45.2 13.8302 45.2H17.0082C17.9696 45.2 18.7442 45.3447 19.3322 45.634C19.9202 45.9233 20.3496 46.3527 20.6202 46.922C20.8909 47.482 21.0309 48.1727 21.0402 48.994C21.0496 49.414 21.0542 49.7827 21.0542 50.1C21.0542 50.4173 21.0496 50.7813 21.0402 51.192C21.0216 52.0507 20.8769 52.7647 20.6062 53.334C20.3449 53.894 19.9249 54.314 19.3462 54.594C18.7769 54.8647 18.0209 55 17.0782 55H13.8302ZM14.8802 53.81H17.0082C17.6522 53.81 18.1656 53.7213 18.5482 53.544C18.9309 53.3667 19.2062 53.082 19.3742 52.69C19.5516 52.298 19.6449 51.78 19.6542 51.136C19.6729 50.856 19.6822 50.6133 19.6822 50.408C19.6822 50.1933 19.6822 49.9833 19.6822 49.778C19.6822 49.5633 19.6729 49.3207 19.6542 49.05C19.6356 48.1447 19.4209 47.4773 19.0102 47.048C18.5996 46.6093 17.9089 46.39 16.9382 46.39H14.8802V53.81ZM29.6566 55.14C28.8726 55.14 28.1959 55 27.6266 54.72C27.0666 54.44 26.6326 54.0153 26.3246 53.446C26.0259 52.8673 25.8766 52.1253 25.8766 51.22V45.536C25.8766 45.4333 25.9046 45.354 25.9606 45.298C26.0166 45.2327 26.0959 45.2 26.1986 45.2H26.9126C27.0152 45.2 27.0946 45.2327 27.1506 45.298C27.2159 45.354 27.2486 45.4333 27.2486 45.536V51.248C27.2486 52.1627 27.4632 52.8393 27.8926 53.278C28.3219 53.7167 28.9099 53.936 29.6566 53.936C30.3939 53.936 30.9772 53.7167 31.4066 53.278C31.8452 52.8393 32.0646 52.1627 32.0646 51.248V45.536C32.0646 45.4333 32.0926 45.354 32.1486 45.298C32.2139 45.2327 32.2932 45.2 32.3866 45.2H33.1146C33.2079 45.2 33.2826 45.2327 33.3386 45.298C33.4039 45.354 33.4366 45.4333 33.4366 45.536V51.22C33.4366 52.1253 33.2826 52.8673 32.9746 53.446C32.6759 54.0153 32.2466 54.44 31.6866 54.72C31.1266 55 30.4499 55.14 29.6566 55.14ZM41.041 55C40.9477 55 40.8683 54.972 40.803 54.916C40.747 54.8507 40.719 54.7713 40.719 54.678V46.446H38.031C37.9377 46.446 37.8583 46.418 37.793 46.362C37.737 46.2967 37.709 46.2173 37.709 46.124V45.536C37.709 45.4333 37.737 45.354 37.793 45.298C37.8583 45.2327 37.9377 45.2 38.031 45.2H44.779C44.8817 45.2 44.961 45.2327 45.017 45.298C45.0823 45.354 45.115 45.4333 45.115 45.536V46.124C45.115 46.2173 45.0823 46.2967 45.017 46.362C44.961 46.418 44.8817 46.446 44.779 46.446H42.105V54.678C42.105 54.7713 42.0723 54.8507 42.007 54.916C41.951 54.972 41.8717 55 41.769 55H41.041ZM49.8064 55C49.7037 55 49.6244 54.972 49.5684 54.916C49.5124 54.8507 49.4844 54.7713 49.4844 54.678V45.536C49.4844 45.4333 49.5124 45.354 49.5684 45.298C49.6244 45.2327 49.7037 45.2 49.8064 45.2H55.5884C55.6911 45.2 55.7704 45.2327 55.8264 45.298C55.8824 45.354 55.9104 45.4333 55.9104 45.536V46.068C55.9104 46.1707 55.8824 46.25 55.8264 46.306C55.7704 46.362 55.6911 46.39 55.5884 46.39H50.8284V49.456H55.2804C55.3831 49.456 55.4624 49.4887 55.5184 49.554C55.5744 49.61 55.6024 49.6893 55.6024 49.792V50.31C55.6024 50.4033 55.5744 50.4827 55.5184 50.548C55.4624 50.604 55.3831 50.632 55.2804 50.632H50.8284V53.81H55.7004C55.8031 53.81 55.8824 53.838 55.9384 53.894C55.9944 53.95 56.0224 54.0293 56.0224 54.132V54.678C56.0224 54.7713 55.9944 54.8507 55.9384 54.916C55.8824 54.972 55.8031 55 55.7004 55H49.8064ZM64.2069 55.14C63.3483 55.14 62.6343 54.9813 62.0649 54.664C61.5049 54.3467 61.0803 53.9033 60.7909 53.334C60.5016 52.7647 60.3429 52.102 60.3149 51.346C60.3056 50.9633 60.3009 50.5527 60.3009 50.114C60.3009 49.6753 60.3056 49.2553 60.3149 48.854C60.3429 48.098 60.5016 47.4353 60.7909 46.866C61.0803 46.2967 61.5049 45.8533 62.0649 45.536C62.6343 45.2187 63.3483 45.06 64.2069 45.06C64.8509 45.06 65.4156 45.1487 65.9009 45.326C66.3863 45.5033 66.7876 45.7413 67.1049 46.04C67.4316 46.3387 67.6789 46.6747 67.8469 47.048C68.0149 47.412 68.1083 47.79 68.1269 48.182C68.1363 48.266 68.1083 48.336 68.0429 48.392C67.9869 48.448 67.9169 48.476 67.8329 48.476H67.0629C66.9789 48.476 66.9043 48.4527 66.8389 48.406C66.7829 48.3593 66.7409 48.2753 66.7129 48.154C66.5543 47.426 66.2556 46.9267 65.8169 46.656C65.3876 46.3853 64.8463 46.25 64.1929 46.25C63.4463 46.25 62.8536 46.4647 62.4149 46.894C61.9763 47.314 61.7383 47.9907 61.7009 48.924C61.6729 49.6893 61.6729 50.4733 61.7009 51.276C61.7383 52.2093 61.9763 52.8907 62.4149 53.32C62.8536 53.74 63.4463 53.95 64.1929 53.95C64.8463 53.95 65.3876 53.8147 65.8169 53.544C66.2556 53.2733 66.5543 52.774 66.7129 52.046C66.7409 51.9247 66.7829 51.8407 66.8389 51.794C66.9043 51.7473 66.9789 51.724 67.0629 51.724H67.8329C67.9169 51.724 67.9869 51.752 68.0429 51.808C68.1083 51.864 68.1363 51.934 68.1269 52.018C68.1083 52.41 68.0149 52.7927 67.8469 53.166C67.6789 53.53 67.4316 53.8613 67.1049 54.16C66.7876 54.4587 66.3863 54.6967 65.9009 54.874C65.4156 55.0513 64.8509 55.14 64.2069 55.14ZM73.1252 55C73.0225 55 72.9432 54.972 72.8872 54.916C72.8312 54.8507 72.8032 54.7713 72.8032 54.678V45.536C72.8032 45.4333 72.8312 45.354 72.8872 45.298C72.9432 45.2327 73.0225 45.2 73.1252 45.2H73.8392C73.9418 45.2 74.0212 45.2327 74.0772 45.298C74.1425 45.354 74.1752 45.4333 74.1752 45.536V49.4H78.9912V45.536C78.9912 45.4333 79.0192 45.354 79.0752 45.298C79.1405 45.2327 79.2198 45.2 79.3132 45.2H80.0272C80.1298 45.2 80.2092 45.2327 80.2652 45.298C80.3305 45.354 80.3632 45.4333 80.3632 45.536V54.678C80.3632 54.7713 80.3305 54.8507 80.2652 54.916C80.2092 54.972 80.1298 55 80.0272 55H79.3132C79.2198 55 79.1405 54.972 79.0752 54.916C79.0192 54.8507 78.9912 54.7713 78.9912 54.678V50.66H74.1752V54.678C74.1752 54.7713 74.1425 54.8507 74.0772 54.916C74.0212 54.972 73.9418 55 73.8392 55H73.1252ZM92.1373 55C92.0346 55 91.9553 54.972 91.8993 54.916C91.8433 54.8507 91.8153 54.7713 91.8153 54.678V45.536C91.8153 45.4333 91.8433 45.354 91.8993 45.298C91.9553 45.2327 92.0346 45.2 92.1373 45.2H95.6933C96.3839 45.2 96.9813 45.312 97.4853 45.536C97.9986 45.76 98.3953 46.096 98.6753 46.544C98.9553 46.9827 99.0953 47.5333 99.0953 48.196C99.0953 48.8587 98.9553 49.4093 98.6753 49.848C98.3953 50.2867 97.9986 50.618 97.4853 50.842C96.9813 51.066 96.3839 51.178 95.6933 51.178H93.2153V54.678C93.2153 54.7713 93.1826 54.8507 93.1173 54.916C93.0613 54.972 92.9819 55 92.8793 55H92.1373ZM93.2013 50.002H95.6233C96.3139 50.002 96.8319 49.848 97.1773 49.54C97.5226 49.232 97.6953 48.784 97.6953 48.196C97.6953 47.6173 97.5273 47.1693 97.1913 46.852C96.8553 46.5347 96.3326 46.376 95.6233 46.376H93.2013V50.002ZM106.264 55C106.124 55 106.012 54.9673 105.928 54.902C105.853 54.8367 105.792 54.748 105.746 54.636L102.624 45.634C102.605 45.578 102.596 45.5267 102.596 45.48C102.596 45.4053 102.624 45.34 102.68 45.284C102.736 45.228 102.801 45.2 102.876 45.2H103.604C103.716 45.2 103.8 45.2327 103.856 45.298C103.921 45.354 103.958 45.4053 103.968 45.452L106.712 53.39L109.456 45.452C109.474 45.4053 109.512 45.354 109.568 45.298C109.624 45.2327 109.708 45.2 109.82 45.2H110.548C110.622 45.2 110.688 45.228 110.744 45.284C110.809 45.34 110.842 45.4053 110.842 45.48C110.842 45.5267 110.832 45.578 110.814 45.634L107.678 54.636C107.64 54.748 107.58 54.8367 107.496 54.902C107.421 54.9673 107.314 55 107.174 55H106.264ZM117.776 55C117.682 55 117.603 54.972 117.538 54.916C117.482 54.8507 117.454 54.7713 117.454 54.678V46.446H114.766C114.672 46.446 114.593 46.418 114.528 46.362C114.472 46.2967 114.444 46.2173 114.444 46.124V45.536C114.444 45.4333 114.472 45.354 114.528 45.298C114.593 45.2327 114.672 45.2 114.766 45.2H121.514C121.616 45.2 121.696 45.2327 121.752 45.298C121.817 45.354 121.85 45.4333 121.85 45.536V46.124C121.85 46.2173 121.817 46.2967 121.752 46.362C121.696 46.418 121.616 46.446 121.514 46.446H118.84V54.678C118.84 54.7713 118.807 54.8507 118.742 54.916C118.686 54.972 118.606 55 118.504 55H117.776ZM132.417 55C132.315 55 132.235 54.972 132.179 54.916C132.123 54.8507 132.095 54.7713 132.095 54.678V45.522C132.095 45.4287 132.123 45.354 132.179 45.298C132.235 45.2327 132.315 45.2 132.417 45.2H133.159C133.253 45.2 133.327 45.2327 133.383 45.298C133.439 45.354 133.467 45.4287 133.467 45.522V53.782H138.129C138.232 53.782 138.311 53.8147 138.367 53.88C138.423 53.936 138.451 54.0153 138.451 54.118V54.678C138.451 54.7713 138.423 54.8507 138.367 54.916C138.311 54.972 138.232 55 138.129 55H132.417ZM143.106 55C143.013 55 142.933 54.972 142.868 54.916C142.812 54.8507 142.784 54.7713 142.784 54.678V45.536C142.784 45.4333 142.812 45.354 142.868 45.298C142.933 45.2327 143.013 45.2 143.106 45.2H143.806C143.918 45.2 144.002 45.228 144.058 45.284C144.114 45.34 144.147 45.3867 144.156 45.424L147.124 51.08L150.106 45.424C150.125 45.3867 150.157 45.34 150.204 45.284C150.26 45.228 150.344 45.2 150.456 45.2H151.142C151.245 45.2 151.324 45.2327 151.38 45.298C151.445 45.354 151.478 45.4333 151.478 45.536V54.678C151.478 54.7713 151.445 54.8507 151.38 54.916C151.324 54.972 151.245 55 151.142 55H150.456C150.363 55 150.283 54.972 150.218 54.916C150.162 54.8507 150.134 54.7713 150.134 54.678V47.79L147.796 52.354C147.759 52.4473 147.703 52.522 147.628 52.578C147.553 52.6247 147.46 52.648 147.348 52.648H146.914C146.793 52.648 146.695 52.6247 146.62 52.578C146.555 52.522 146.499 52.4473 146.452 52.354L144.114 47.79V54.678C144.114 54.7713 144.081 54.8507 144.016 54.916C143.96 54.972 143.885 55 143.792 55H143.106ZM159.163 55C159.07 55 158.991 54.972 158.925 54.916C158.869 54.8507 158.841 54.7713 158.841 54.678V46.446H156.153C156.06 46.446 155.981 46.418 155.915 46.362C155.859 46.2967 155.831 46.2173 155.831 46.124V45.536C155.831 45.4333 155.859 45.354 155.915 45.298C155.981 45.2327 156.06 45.2 156.153 45.2H162.901C163.004 45.2 163.083 45.2327 163.139 45.298C163.205 45.354 163.237 45.4333 163.237 45.536V46.124C163.237 46.2173 163.205 46.2967 163.139 46.362C163.083 46.418 163.004 46.446 162.901 46.446H160.227V54.678C160.227 54.7713 160.195 54.8507 160.129 54.916C160.073 54.972 159.994 55 159.891 55H159.163Z"
     fill="#131212"
     fill-opacity="0.68"
     id="path4"
     style="fill:#333333" />
  <defs
     id="defs11">
    <linearGradient
       id="paint0_linear_9_2"
       x1="84.5"
       y1="0"
       x2="84.5"
       y2="37"
       gradientUnits="userSpaceOnUse">
      <stop
         offset="0.1875"
         stop-color="#FA9538"
         id="stop6" />
      <stop
         offset="1"
         stop-color="#EA400C"
         id="stop8" />
    </linearGradient>
  </defs>
</svg>
